# xmcd
#
# Track frame offsets: 
#        150
#        12345
#        25565
#        36925
#        48212
#        63275
#        73472
#        85132
#        98037
#        108850
#        119725
#        132270
#        152010
#        165810
#        178002
#
# Disc length: 2614 seconds
#
# Revision: 13
# Processed by: cddbd v1.5.2PL0 Copyright (c) Steve Scherf et al.
# Submitted via: ExactAudioCopyFreeDBPlugin 1.0
#
DISCID=bb0a340f
DTITLE=Various Artist - Classic Country 1965-1969 [CD2]
DYEAR=1999
DGENRE=Country
TTITLE0=Tammy Wynette - Stand By Your Man
TTITLE1=David Houston - Almost Persuaded
TTITLE2=Buck Owens - Cryin' Time
TTITLE3=Sonny James - Take Good Care Of Her
TTITLE4=Marty Robbins - I Walk Alone
TTITLE5=Jim Reeves - Is It Really Over
TTITLE6=Jack Greene - There Goes My Everything
TTITLE7=Conway Twitty - Next In Line
TTITLE8=Porter Wagoner and Dolly Parton - Just Someone I Used To Know
TTITLE9=Porter Wagoner - Green Green Grass Of Home
TTITLE10=Jim Reeves - Blue Side Of Lonesome
TTITLE11=Elvis Presley - Suspicious Minds
TTITLE12=Charley Pride - All I Have To Offer You (Is Me)
TTITLE13=Glen Campbell - Galveston
TTITLE14=Bobby Goldsboro - Honey
EXTD=YEAR: 1998
EXTT0=
EXTT1=
EXTT2=
EXTT3=
EXTT4=
EXTT5=
EXTT6=
EXTT7=
EXTT8=
EXTT9=
EXTT10=
EXTT11=
EXTT12=
EXTT13=
EXTT14=
PLAYORDER=
